<svg width="690" height="851" viewBox="0 0 690 851" fill="none" xmlns="http://www.w3.org/2000/svg">
<path d="M517.926 25.9419L663.596 171.612C673.169 181.185 666.389 197.554 652.851 197.554H507.181C498.788 197.554 491.984 190.75 491.984 182.357V36.6874C491.984 23.1489 508.353 16.3687 517.926 25.9419Z" fill="white"/>
<rect y="300.129" width="214.65" height="533.775" rx="47.4888" fill="white"/>
<path d="M616.926 834H507.616C500.603 834 493.655 832.662 487.144 830.057C484.222 828.889 481.406 827.472 478.726 825.823L477.864 825.293C472.913 822.246 468.381 818.567 464.38 814.349L303.451 644.664C278.145 617.981 264.038 582.607 264.038 545.832V519.282C264.038 514.446 265.164 509.676 267.327 505.351C270.134 499.736 274.572 495.1 280.06 492.052L280.94 491.563C286.05 488.724 291.8 487.234 297.647 487.234H353.757C372.772 487.234 391.466 482.337 408.038 473.015C421.432 465.481 433.111 455.241 442.332 442.947L447.417 436.167C455.518 425.364 461.379 413.052 464.654 399.952C467.652 387.958 468.43 375.516 466.949 363.242L466.142 356.554C463.778 336.966 456.634 318.26 445.341 302.083C433.576 285.231 417.692 271.672 399.203 262.7L392.775 259.58C373.049 250.007 351.44 244.944 329.514 244.756L39.9121 242.281C33.0688 242.222 26.3775 240.255 20.5913 236.601C14.5904 232.811 9.81468 227.365 6.84042 220.921L4.85725 216.624C1.65722 209.691 0 202.145 0 194.509V93.9693C0 83.3785 2.37936 72.923 6.96232 63.3752L7.10591 63.076C9.95198 57.1467 13.6382 51.6588 18.0508 46.7818C25.5321 38.5129 34.9214 32.1982 45.401 28.3874L47.7744 27.5243C56.3823 24.3942 65.4712 22.793 74.6306 22.793H387.714C392.6 22.793 397.444 23.7016 401.998 25.4727C408.675 28.0693 414.518 32.4369 418.898 38.1059L419.448 38.8175C425.219 46.2853 428.349 55.4563 428.349 64.8938V144.974C428.349 169.52 434.468 193.643 445.445 215.598C446.031 216.769 453.474 224.316 461.322 232.01C470.182 240.695 480.927 247.172 492.627 251.301C502.259 254.701 512.4 256.438 522.615 256.438H647C652.496 256.438 657.925 257.652 662.898 259.992L664.502 260.747C669.089 262.905 673.063 266.178 676.061 270.266C679.88 275.475 681.94 281.765 681.94 288.225V315.324V377.33C681.94 401.736 678.696 426.033 672.294 449.584L671.978 450.745C661.033 491.007 641.097 528.278 613.592 559.651C600.04 575.107 588.14 588.631 586.962 589.81C565.277 611.494 552.489 640.042 574.52 661.375L666.906 750.831C677.096 760.698 681.86 774.901 679.679 788.917C677.671 801.826 669.99 813.157 658.744 819.803L650.035 824.949C640.007 830.874 628.573 834 616.926 834Z" fill="#CE0F0F"/>
</svg>
