<svg width="2560" height="512" viewBox="0 0 2560 512" fill="none" xmlns="http://www.w3.org/2000/svg">
<rect width="2560" height="512" fill="url(#paint0_linear_293_41)"/>
<path d="M1359.35 72.8886L1426.11 139.646C1430.5 144.033 1427.39 151.534 1421.19 151.534H1354.43C1350.58 151.534 1347.47 148.416 1347.47 144.57V77.813C1347.47 71.6086 1354.97 68.5014 1359.35 72.8886Z" fill="white"/>
<rect x="1122" y="198.543" width="98.3691" height="244.617" rx="21.7631" fill="white"/>
<path d="M1404.72 443.204H1354.63C1351.42 443.204 1348.23 442.59 1345.25 441.397C1343.91 440.861 1342.62 440.212 1341.39 439.456L1340.99 439.213C1338.73 437.817 1336.65 436.131 1334.82 434.198L1261.06 356.435C1249.47 344.207 1243 327.996 1243 311.143V298.975C1243 296.759 1243.52 294.573 1244.51 292.591C1245.8 290.018 1247.83 287.893 1250.35 286.496L1250.75 286.272C1253.09 284.971 1255.73 284.288 1258.4 284.288H1284.12C1292.83 284.288 1301.4 282.044 1308.99 277.772C1315.13 274.319 1320.49 269.627 1324.71 263.992L1327.04 260.885C1330.75 255.935 1333.44 250.292 1334.94 244.289C1336.31 238.792 1336.67 233.09 1335.99 227.465L1335.62 224.401C1334.54 215.424 1331.27 206.851 1326.09 199.438C1320.7 191.715 1313.42 185.501 1304.95 181.389L1302 179.96C1292.96 175.573 1283.06 173.252 1273.01 173.166L1140.29 172.032C1137.15 172.005 1134.09 171.103 1131.44 169.429C1128.69 167.692 1126.5 165.196 1125.13 162.243L1124.23 160.274C1122.76 157.096 1122 153.639 1122 150.139V104.064C1122 99.2103 1123.09 94.4188 1125.19 90.0432L1125.26 89.9062C1126.56 87.1889 1128.25 84.6739 1130.27 82.4388C1133.7 78.6494 1138 75.7555 1142.81 74.0091L1143.89 73.6136C1147.84 72.1791 1152 71.4453 1156.2 71.4453H1299.68C1301.92 71.4453 1304.14 71.8617 1306.23 72.6734C1309.29 73.8633 1311.96 75.8649 1313.97 78.4629L1314.22 78.789C1316.87 82.2113 1318.3 86.4142 1318.3 90.7392V127.438C1318.3 138.687 1321.11 149.742 1326.14 159.803C1326.41 160.34 1329.82 163.799 1333.41 167.325C1337.47 171.305 1342.4 174.273 1347.76 176.166C1352.17 177.724 1356.82 178.52 1361.5 178.52H1418.51C1421.02 178.52 1423.51 179.076 1425.79 180.148L1426.53 180.494C1428.63 181.484 1430.45 182.983 1431.82 184.857C1433.57 187.244 1434.52 190.127 1434.52 193.087V205.506V233.922C1434.52 245.106 1433.03 256.241 1430.1 267.034L1429.95 267.566C1424.94 286.018 1415.8 303.098 1403.2 317.475C1396.99 324.559 1391.53 330.757 1390.99 331.297C1381.05 341.234 1375.19 354.317 1385.29 364.093L1427.63 405.089C1432.3 409.611 1434.48 416.12 1433.48 422.543C1432.56 428.459 1429.04 433.652 1423.89 436.697L1419.9 439.056C1415.3 441.771 1410.06 443.204 1404.72 443.204Z" fill="#CE0F0F"/>
<defs>
<linearGradient id="paint0_linear_293_41" x1="-2.89083e-06" y1="512" x2="2560" y2="27" gradientUnits="userSpaceOnUse">
<stop/>
<stop offset="0.519231" stop-color="#111111"/>
<stop offset="1"/>
</linearGradient>
</defs>
</svg>
